<svg width="89" height="729" viewBox="0 0 89 729" fill="none" xmlns="http://www.w3.org/2000/svg">
<path d="M2.04 680.52L1.70349 679.578L1.04 679.815L1.04 680.52L2.04 680.52ZM2.04 700.08L1.04 700.08L1.04 700.79L1.7106 701.024L2.04 700.08ZM87 729.72L86.6706 730.664L88 731.128L88 729.72L87 729.72ZM87 706.68L88 706.68L88 705.943L87.296 705.725L87 706.68ZM69.96 701.4L68.96 701.4L68.96 702.137L69.664 702.355L69.96 701.4ZM69.96 678.72L69.6518 677.769L68.96 677.993L68.96 678.72L69.96 678.72ZM87 673.2L87.3082 674.151L88 673.927L88 673.2L87 673.2ZM87 650.16L88 650.16L88 648.741L86.6635 649.218L87 650.16ZM50.88 696.6L50.6364 697.57L51.88 697.882L51.88 696.6L50.88 696.6ZM26.04 690.36L25.04 690.36L25.04 691.14L25.7964 691.33L26.04 690.36ZM26.04 689.76L25.8096 688.787L25.04 688.969L25.04 689.76L26.04 689.76ZM50.88 683.88L51.88 683.88L51.88 682.616L50.6496 682.907L50.88 683.88ZM1.04 680.52L1.04 700.08L3.04 700.08L3.04 680.52L1.04 680.52ZM1.7106 701.024L86.6706 730.664L87.3294 728.776L2.3694 699.136L1.7106 701.024ZM88 729.72L88 706.68L86 706.68L86 729.72L88 729.72ZM87.296 705.725L70.256 700.445L69.664 702.355L86.704 707.635L87.296 705.725ZM70.96 701.4L70.96 678.72L68.96 678.72L68.96 701.4L70.96 701.4ZM70.2682 679.671L87.3082 674.151L86.6918 672.249L69.6518 677.769L70.2682 679.671ZM88 673.2L88 650.16L86 650.16L86 673.2L88 673.2ZM86.6635 649.218L1.70349 679.578L2.3765 681.462L87.3365 651.102L86.6635 649.218ZM51.1236 695.63L26.2836 689.39L25.7964 691.33L50.6364 697.57L51.1236 695.63ZM27.04 690.36L27.04 689.76L25.04 689.76L25.04 690.36L27.04 690.36ZM26.2703 690.733L51.1103 684.853L50.6496 682.907L25.8096 688.787L26.2703 690.733ZM49.88 683.88L49.88 696.6L51.88 696.6L51.88 683.88L49.88 683.88ZM2.04 644.467L1.04 644.467L1.04 645.467L2.04 645.467L2.04 644.467ZM87 644.467L87 645.467L88 645.467L88 644.467L87 644.467ZM87 612.667L86 612.66L86 612.667L87 612.667ZM66.84 622.867L66.84 623.867L67.84 623.867L67.84 622.867L66.84 622.867ZM22.08 622.867L21.08 622.867L21.08 623.867L22.08 623.867L22.08 622.867ZM2.04 645.467L87 645.467L87 643.467L2.04 643.467L2.04 645.467ZM88 644.467L88 612.667L86 612.667L86 644.467L88 644.467ZM88 612.675C88.061 604.003 85.9266 595.521 81.2019 589.18C76.4495 582.802 69.1297 578.667 59.04 578.667L59.04 580.667C68.5103 580.667 75.2305 584.513 79.5981 590.375C83.9933 596.274 86.059 604.292 86 612.66L88 612.675ZM59.04 578.667L30.48 578.667L30.48 580.667L59.04 580.667L59.04 578.667ZM30.48 578.667C20.275 578.667 12.8667 582.798 8.03781 589.174C3.23625 595.514 1.03999 603.996 1.03999 612.667L3.03999 612.667C3.03999 604.299 5.16374 596.281 9.63217 590.381C14.0733 584.517 20.885 580.667 30.48 580.667L30.48 578.667ZM1.03999 612.667L1.04 644.467L3.04 644.467L3.03999 612.667L1.03999 612.667ZM66.84 621.867L22.08 621.867L22.08 623.867L66.84 623.867L66.84 621.867ZM23.08 622.867L23.08 611.947L21.08 611.947L21.08 622.867L23.08 622.867ZM23.08 611.947C23.08 608.495 23.915 606.095 25.2602 604.569C26.5886 603.061 28.5373 602.267 31.08 602.267L31.08 600.267C28.1027 600.267 25.5514 601.214 23.7598 603.246C21.985 605.26 21.08 608.2 21.08 611.947L23.08 611.947ZM31.08 602.267L57.6 602.267L57.6 600.267L31.08 600.267L31.08 602.267ZM57.6 602.267C60.1547 602.267 62.1693 603.039 63.5552 604.541C64.9511 606.053 65.84 608.447 65.84 611.947L67.84 611.947C67.84 608.128 66.8689 605.182 65.0248 603.184C63.1706 601.176 60.5653 600.267 57.6 600.267L57.6 602.267ZM65.84 611.947L65.84 622.867L67.84 622.867L67.84 611.947L65.84 611.947ZM43.56 533.922L43.2528 534.874L43.3114 534.893L43.3718 534.904L43.56 533.922ZM63.6 537.762L64.6 537.762L64.6 536.936L63.7882 536.78L63.6 537.762ZM63.6 538.122L63.7871 539.105L64.6 538.95L64.6 538.122L63.6 538.122ZM43.44 541.962L43.2529 540.98L43.1928 540.991L43.1345 541.01L43.44 541.962ZM1.91999 555.282L1.61451 554.33L0.919987 554.553L0.919987 555.282L1.91999 555.282ZM1.91999 578.322L0.919988 578.322L0.919988 579.745L2.25885 579.263L1.91999 578.322ZM86.88 547.722L87.2188 548.663L87.88 548.425L87.88 547.722L86.88 547.722ZM86.88 528.042L87.88 528.042L87.88 527.339L87.2188 527.101L86.88 528.042ZM1.91998 497.442L2.25884 496.501L0.919984 496.019L0.919984 497.442L1.91998 497.442ZM1.91999 520.482L0.919985 520.482L0.919985 521.21L1.61282 521.434L1.91999 520.482ZM43.3718 534.904L63.4118 538.744L63.7882 536.78L43.7482 532.94L43.3718 534.904ZM62.6 537.762L62.6 538.122L64.6 538.122L64.6 537.762L62.6 537.762ZM63.4129 537.14L43.2529 540.98L43.6271 542.945L63.7871 539.105L63.4129 537.14ZM43.1345 541.01L1.61451 554.33L2.22546 556.234L43.7455 542.914L43.1345 541.01ZM0.919987 555.282L0.919988 578.322L2.91999 578.322L2.91999 555.282L0.919987 555.282ZM2.25885 579.263L87.2188 548.663L86.5411 546.781L1.58113 577.381L2.25885 579.263ZM87.88 547.722L87.88 528.042L85.88 528.042L85.88 547.722L87.88 547.722ZM87.2188 527.101L2.25884 496.501L1.58112 498.383L86.5411 528.983L87.2188 527.101ZM0.919984 497.442L0.919985 520.482L2.91999 520.482L2.91998 497.442L0.919984 497.442ZM1.61282 521.434L43.2528 534.874L43.8672 532.971L2.22715 519.531L1.61282 521.434ZM2.03999 459.036L1.70348 458.094L1.03999 458.331L1.03999 459.036L2.03999 459.036ZM2.03999 478.596L1.03999 478.596L1.03999 479.306L1.71059 479.54L2.03999 478.596ZM87 508.236L86.6706 509.18L88 509.644L88 508.236L87 508.236ZM87 485.196L88 485.196L88 484.459L87.296 484.24L87 485.196ZM69.96 479.916L68.96 479.916L68.96 480.653L69.664 480.871L69.96 479.916ZM69.96 457.236L69.6518 456.284L68.96 456.508L68.96 457.236L69.96 457.236ZM87 451.716L87.3082 452.667L88 452.443L88 451.716L87 451.716ZM87 428.676L88 428.676L88 427.256L86.6635 427.734L87 428.676ZM50.88 475.116L50.6363 476.085L51.88 476.398L51.88 475.116L50.88 475.116ZM26.04 468.876L25.04 468.876L25.04 469.655L25.7963 469.845L26.04 468.876ZM26.04 468.276L25.8096 467.303L25.04 467.485L25.04 468.276L26.04 468.276ZM50.88 462.396L51.88 462.396L51.88 461.131L50.6496 461.423L50.88 462.396ZM1.03999 459.036L1.03999 478.596L3.03999 478.596L3.03999 459.036L1.03999 459.036ZM1.71059 479.54L86.6706 509.18L87.3294 507.291L2.36939 477.651L1.71059 479.54ZM88 508.236L88 485.196L86 485.196L86 508.236L88 508.236ZM87.296 484.24L70.256 478.96L69.664 480.871L86.704 486.151L87.296 484.24ZM70.96 479.916L70.96 457.236L68.96 457.236L68.96 479.916L70.96 479.916ZM70.2682 458.187L87.3082 452.667L86.6918 450.764L69.6518 456.284L70.2682 458.187ZM88 451.716L88 428.676L86 428.676L86 451.716L88 451.716ZM86.6635 427.734L1.70348 458.094L2.37649 459.977L87.3365 429.617L86.6635 427.734ZM51.1236 474.146L26.2836 467.906L25.7963 469.845L50.6363 476.085L51.1236 474.146ZM27.04 468.876L27.04 468.276L25.04 468.276L25.04 468.876L27.04 468.876ZM26.2703 469.249L51.1103 463.369L50.6496 461.423L25.8096 467.303L26.2703 469.249ZM49.88 462.396L49.88 475.116L51.88 475.116L51.88 462.396L49.88 462.396ZM87 422.983L87 423.983L88 423.983L88 422.983L87 422.983ZM87 401.503L88 401.503L88 400.503L87 400.503L87 401.503ZM53.04 401.503L53.04 400.503L52.9566 400.503L52.8744 400.517L53.04 401.503ZM36.6 404.263L35.6194 404.459L35.8095 405.41L36.7655 405.249L36.6 404.263ZM36.48 403.663L36.0798 402.747L35.3414 403.069L35.4994 403.859L36.48 403.663ZM53.52 396.223L53.9201 397.14L53.9701 397.118L54.0175 397.091L53.52 396.223ZM87 377.023L87.4975 377.891L88 377.602L88 377.023L87 377.023ZM87 355.303L88 355.303L88 354.303L87 354.303L87 355.303ZM2.03998 355.303L2.03998 354.303L1.03998 354.303L1.03998 355.303L2.03998 355.303ZM2.03998 376.663L1.03998 376.663L1.03998 377.663L2.03998 377.663L2.03998 376.663ZM40.56 376.663L40.56 377.663L41.56 377.663L41.56 376.663L40.56 376.663ZM55.2 374.263L56.1806 374.067L54.2 374.263L55.2 374.263ZM55.32 374.863L55.7092 375.784L56.4605 375.467L56.3006 374.667L55.32 374.863ZM38.28 382.063L37.8908 381.142L37.8375 381.164L37.7873 381.193L38.28 382.063ZM2.03998 402.583L1.54726 401.713L1.03998 402L1.03998 402.583L2.03998 402.583ZM2.03999 422.983L1.03999 422.983L1.03999 423.983L2.03999 423.983L2.03999 422.983ZM88 422.983L88 401.503L86 401.503L86 422.983L88 422.983ZM87 400.503L53.04 400.503L53.04 402.503L87 402.503L87 400.503ZM52.8744 400.517L36.4344 403.277L36.7655 405.249L53.2056 402.489L52.8744 400.517ZM37.5806 404.067L37.4606 403.467L35.4994 403.859L35.6194 404.459L37.5806 404.067ZM36.8801 404.58L53.9201 397.14L53.1198 395.307L36.0798 402.747L36.8801 404.58ZM54.0175 397.091L87.4975 377.891L86.5025 376.156L53.0225 395.356L54.0175 397.091ZM88 377.023L88 355.303L86 355.303L86 377.023L88 377.023ZM87 354.303L2.03998 354.303L2.03998 356.303L87 356.303L87 354.303ZM1.03998 355.303L1.03998 376.663L3.03998 376.663L3.03998 355.303L1.03998 355.303ZM2.03998 377.663L40.56 377.663L40.56 375.663L2.03998 375.663L2.03998 377.663ZM41.56 376.663C41.56 376.988 41.4068 377.209 41.3269 377.304C41.2428 377.405 41.1582 377.465 41.1181 377.491C41.0357 377.547 40.9648 377.575 40.9466 377.583C40.9182 377.594 40.8964 377.601 40.8871 377.604C40.8764 377.608 40.8691 377.61 40.8669 377.61C40.8638 377.611 40.8804 377.607 40.9292 377.596C41.0206 377.577 41.1653 377.55 41.3632 377.515C41.7556 377.446 42.3212 377.352 43.0066 377.242C44.3759 377.021 46.2029 376.736 48.0339 376.451C49.8629 376.166 51.6959 375.881 53.0716 375.659C53.7587 375.548 54.3368 375.453 54.745 375.38C54.9474 375.345 55.1173 375.313 55.2404 375.287C55.2988 375.275 55.3644 375.261 55.4229 375.245C55.4468 375.238 55.5028 375.222 55.5654 375.197C55.5906 375.187 55.6669 375.155 55.7528 375.098C55.7946 375.07 55.8805 375.009 55.9656 374.907C56.0464 374.811 56.2 374.589 56.2 374.263L54.2 374.263C54.2 373.938 54.3532 373.717 54.433 373.622C54.5172 373.522 54.6018 373.462 54.6418 373.435C54.7242 373.38 54.7951 373.351 54.8134 373.344C54.8418 373.332 54.8636 373.325 54.8728 373.322C54.8836 373.319 54.8909 373.317 54.8931 373.316C54.8961 373.315 54.8795 373.32 54.8307 373.33C54.7394 373.349 54.5947 373.376 54.3968 373.411C54.0044 373.48 53.4387 373.574 52.7533 373.685C51.3841 373.905 49.5571 374.19 47.7261 374.475C45.8971 374.76 44.0641 375.045 42.6883 375.267C42.0012 375.378 41.4231 375.474 41.0149 375.546C40.8125 375.582 40.6427 375.613 40.5195 375.639C40.4611 375.651 40.3955 375.666 40.3371 375.682C40.3131 375.688 40.2572 375.704 40.1946 375.729C40.1693 375.74 40.0931 375.771 40.0071 375.828C39.9654 375.856 39.8794 375.918 39.7944 376.019C39.7136 376.115 39.56 376.337 39.56 376.663L41.56 376.663ZM54.2194 374.459L54.3394 375.059L56.3006 374.667L56.1806 374.067L54.2194 374.459ZM54.9308 373.942L37.8908 381.142L38.6692 382.984L55.7092 375.784L54.9308 373.942ZM37.7873 381.193L1.54726 401.713L2.53271 403.453L38.7727 382.933L37.7873 381.193ZM1.03998 402.583L1.03999 422.983L3.03999 422.983L3.03998 402.583L1.03998 402.583ZM2.03999 423.983L87 423.983L87 421.983L2.03999 421.983L2.03999 423.983ZM22.32 280.089L23.32 280.089L23.32 279.089L22.32 279.089L22.32 280.089ZM1.91997 280.089L1.91997 279.089L0.919975 279.089L0.919975 280.089L1.91997 280.089ZM1.91998 346.929L0.919978 346.929L0.919978 347.929L1.91998 347.929L1.91998 346.929ZM22.32 346.929L22.32 347.929L23.32 347.929L23.32 346.929L22.32 346.929ZM22.32 324.369L22.32 323.369L21.32 323.369L21.32 324.369L22.32 324.369ZM87 324.369L87 325.369L88 325.369L88 324.369L87 324.369ZM87 302.649L88 302.649L88 301.649L87 301.649L87 302.649ZM22.32 302.649L21.32 302.649L21.32 303.649L22.32 303.649L22.32 302.649ZM22.32 279.089L1.91997 279.089L1.91997 281.089L22.32 281.089L22.32 279.089ZM0.919975 280.089L0.919978 346.929L2.91998 346.929L2.91997 280.089L0.919975 280.089ZM1.91998 347.929L22.32 347.929L22.32 345.929L1.91998 345.929L1.91998 347.929ZM23.32 346.929L23.32 324.369L21.32 324.369L21.32 346.929L23.32 346.929ZM22.32 325.369L87 325.369L87 323.369L22.32 323.369L22.32 325.369ZM88 324.369L88 302.649L86 302.649L86 324.369L88 324.369ZM87 301.649L22.32 301.649L22.32 303.649L87 303.649L87 301.649ZM23.32 302.649L23.32 280.089L21.32 280.089L21.32 302.649L23.32 302.649ZM2.03998 239.075L1.70347 238.133L1.03998 238.37L1.03998 239.075L2.03998 239.075ZM2.03998 258.635L1.03998 258.635L1.03998 259.345L1.71058 259.579L2.03998 258.635ZM87 288.275L86.6706 289.219L88 289.683L88 288.275L87 288.275ZM87 265.235L88 265.235L88 264.498L87.296 264.279L87 265.235ZM69.96 259.955L68.96 259.955L68.96 260.692L69.664 260.91L69.96 259.955ZM69.96 237.275L69.6518 236.323L68.96 236.547L68.96 237.275L69.96 237.275ZM87 231.755L87.3082 232.706L88 232.482L88 231.755L87 231.755ZM87 208.715L88 208.715L88 207.295L86.6635 207.773L87 208.715ZM50.88 255.155L50.6363 256.125L51.88 256.437L51.88 255.155L50.88 255.155ZM26.04 248.915L25.04 248.915L25.04 249.695L25.7963 249.885L26.04 248.915ZM26.04 248.315L25.8096 247.342L25.04 247.524L25.04 248.315L26.04 248.315ZM50.88 242.435L51.88 242.435L51.88 241.17L50.6496 241.462L50.88 242.435ZM1.03998 239.075L1.03998 258.635L3.03998 258.635L3.03998 239.075L1.03998 239.075ZM1.71058 259.579L86.6706 289.219L87.3294 287.331L2.36938 257.69L1.71058 259.579ZM88 288.275L88 265.235L86 265.235L86 288.275L88 288.275ZM87.296 264.279L70.256 258.999L69.664 260.91L86.704 266.19L87.296 264.279ZM70.96 259.955L70.96 237.275L68.96 237.275L68.96 259.955L70.96 259.955ZM70.2682 238.226L87.3082 232.706L86.6918 230.803L69.6518 236.323L70.2682 238.226ZM88 231.755L88 208.715L86 208.715L86 231.755L88 231.755ZM86.6635 207.773L1.70347 238.133L2.37648 240.016L87.3365 209.656L86.6635 207.773ZM51.1236 254.185L26.2836 247.945L25.7963 249.885L50.6363 256.125L51.1236 254.185ZM27.04 248.915L27.04 248.315L25.04 248.315L25.04 248.915L27.04 248.915ZM26.2703 249.288L51.1103 243.408L50.6496 241.462L25.8096 247.342L26.2703 249.288ZM49.88 242.435L49.88 255.155L51.88 255.155L51.88 242.435L49.88 242.435ZM18.96 144.169L19.8685 143.751L19.4596 142.862L18.5621 143.251L18.96 144.169ZM37.68 140.329L37.68 139.329L36.68 139.329L36.68 140.329L37.68 140.329ZM37.68 174.529L36.68 174.529L36.68 175.529L37.68 175.529L37.68 174.529ZM55.68 174.529L55.68 175.529L56.68 175.529L56.68 174.529L55.68 174.529ZM55.68 160.969L55.68 159.969L54.68 159.969L54.68 160.969L55.68 160.969ZM27.24 162.169L27.6197 163.094L28.5841 162.698L28.1485 161.751L27.24 162.169ZM18.5621 143.251C4.518 149.341 -0.160031 162.398 -0.160031 173.689L1.83997 173.689C1.83997 162.9 6.28195 150.756 19.3578 145.086L18.5621 143.251ZM-0.160031 173.689C-0.16003 182.264 2.28761 190.889 7.24454 197.395C12.2227 203.929 19.7101 208.289 29.64 208.289L29.64 206.289C20.3698 206.289 13.4573 202.249 8.8354 196.183C4.19233 190.089 1.83997 181.913 1.83997 173.689L-0.160031 173.689ZM29.64 208.289L58.8 208.289L58.8 206.289L29.64 206.289L29.64 208.289ZM58.8 208.289C68.9019 208.289 76.538 203.936 81.624 197.403C86.6893 190.897 89.2 182.27 89.2 173.689L87.2 173.689C87.2 181.908 84.7906 190.08 80.0459 196.174C75.3219 202.242 68.258 206.289 58.8 206.289L58.8 208.289ZM89.2 173.689C89.2 164.99 86.6901 156.418 81.6197 149.999C76.5285 143.553 68.8914 139.329 58.8 139.329L58.8 141.329C68.2686 141.329 75.3315 145.264 80.0502 151.239C84.7898 157.239 87.2 165.348 87.2 173.689L89.2 173.689ZM58.8 139.329L37.68 139.329L37.68 141.329L58.8 141.329L58.8 139.329ZM36.68 140.329L36.68 174.529L38.68 174.529L38.68 140.329L36.68 140.329ZM37.68 175.529L55.68 175.529L55.68 173.529L37.68 173.529L37.68 175.529ZM56.68 174.529L56.68 160.969L54.68 160.969L54.68 174.529L56.68 174.529ZM55.68 161.969L58.8 161.969L58.8 159.969L55.68 159.969L55.68 161.969ZM58.8 161.969C61.7399 161.969 63.9334 163.333 65.4275 165.43C66.9423 167.556 67.7379 170.447 67.745 173.391C67.7521 176.335 66.9705 179.224 65.4606 181.348C63.9723 183.441 61.7728 184.809 58.8 184.809L58.8 186.809C62.4872 186.809 65.2677 185.071 67.0906 182.507C68.892 179.973 69.7529 176.652 69.745 173.386C69.7371 170.12 68.8602 166.801 67.0562 164.27C65.2316 161.709 62.46 159.969 58.8 159.969L58.8 161.969ZM58.8 184.809L29.64 184.809L29.64 186.809L58.8 186.809L58.8 184.809ZM29.64 184.809C24.7652 184.809 21.5702 180.673 20.973 175.626C20.3792 170.607 22.4525 165.215 27.6197 163.094L26.8602 161.244C20.6274 163.802 18.3207 170.231 18.9869 175.861C19.6498 181.464 23.3548 186.809 29.64 186.809L29.64 184.809ZM28.1485 161.751L19.8685 143.751L18.0515 144.587L26.3315 162.587L28.1485 161.751ZM22.2 108.646L21.2 108.646L21.2 109.646L22.2 109.646L22.2 108.646ZM22.2 71.2059L23.2 71.2059L23.2 70.2059L22.2 70.2059L22.2 71.2059ZM2.03997 71.2059L2.03997 70.2059L1.03997 70.2059L1.03997 71.2059L2.03997 71.2059ZM2.03997 130.366L1.03997 130.366L1.03997 131.366L2.03997 131.366L2.03997 130.366ZM87 130.366L87 131.366L88 131.366L88 130.366L87 130.366ZM87 71.2059L88 71.2059L88 70.2059L87 70.2059L87 71.2059ZM66.72 71.2059L66.72 70.2059L65.72 70.2059L65.72 71.2059L66.72 71.2059ZM66.72 108.646L66.72 109.646L67.72 109.646L67.72 108.646L66.72 108.646ZM54 108.646L53 108.646L53 109.646L54 109.646L54 108.646ZM54 74.2059L55 74.2059L55 73.2059L54 73.2059L54 74.2059ZM35.4 74.2059L35.4 73.2059L34.4 73.2059L34.4 74.2059L35.4 74.2059ZM35.4 108.646L35.4 109.646L36.4 109.646L36.4 108.646L35.4 108.646ZM23.2 108.646L23.2 71.2059L21.2 71.2059L21.2 108.646L23.2 108.646ZM22.2 70.2059L2.03997 70.2059L2.03997 72.2059L22.2 72.2059L22.2 70.2059ZM1.03997 71.2059L1.03997 130.366L3.03997 130.366L3.03997 71.2059L1.03997 71.2059ZM2.03997 131.366L87 131.366L87 129.366L2.03997 129.366L2.03997 131.366ZM88 130.366L88 71.2059L86 71.2059L86 130.366L88 130.366ZM87 70.2059L66.72 70.2059L66.72 72.2059L87 72.2059L87 70.2059ZM65.72 71.2059L65.72 108.646L67.72 108.646L67.72 71.2059L65.72 71.2059ZM66.72 107.646L54 107.646L54 109.646L66.72 109.646L66.72 107.646ZM55 108.646L55 74.2059L53 74.2059L53 108.646L55 108.646ZM54 73.2059L35.4 73.2059L35.4 75.2059L54 75.2059L54 73.2059ZM34.4 74.2059L34.4 108.646L36.4 108.646L36.4 74.2059L34.4 74.2059ZM35.4 107.646L22.2 107.646L22.2 109.646L35.4 109.646L35.4 107.646ZM72.84 63.899L72.1106 64.5832L72.7338 65.2476L73.4533 64.6889L72.84 63.899ZM62.76 1.37902L62.714 2.37799L62.7162 2.37811L62.76 1.37902ZM33.84 30.6591L34.817 30.8723L34.8206 30.8555L34.8237 30.8386L33.84 30.6591ZM25.92 41.9391L25.8834 42.9384L25.9311 42.9401L25.9787 42.9373L25.92 41.9391ZM25.2 17.459L25.8836 18.1889L26.5458 17.5685L25.9926 16.8494L25.2 17.459ZM14.4 3.41907L15.1926 2.80932L14.5635 1.99158L13.7658 2.64587L14.4 3.41907ZM53.28 37.019L54.2677 37.175L54.2693 37.1654L54.2706 37.1557L53.28 37.019ZM61.8 22.4991L61.8656 21.5012L61.8578 21.5007L61.8499 21.5003L61.8 22.4991ZM60.12 50.339L59.4833 49.5679L58.6617 50.2462L59.3906 51.0232L60.12 50.339ZM73.4533 64.6889C83.8714 56.5995 89.2 45.5192 89.2 34.9791L87.2 34.9791C87.2 44.8389 82.2086 55.3586 72.2267 63.1092L73.4533 64.6889ZM89.2 34.9791C89.2 27.0041 86.9033 18.5834 82.4731 12.0385C78.032 5.47753 71.4069 0.756771 62.8037 0.380001L62.7162 2.37811C70.5531 2.72131 76.6479 7.00061 80.8168 13.1596C84.9967 19.3347 87.2 27.354 87.2 34.9791L89.2 34.9791ZM62.8059 0.380124C52.0738 -0.113345 45.2068 3.54443 40.7127 9.37884C36.2801 15.1334 34.2392 22.9034 32.8562 30.4795L34.8237 30.8386C36.2008 23.2947 38.1798 15.9447 42.2972 10.5993C46.3531 5.33374 52.5661 1.91143 62.714 2.37799L62.8059 0.380124ZM32.863 30.4459C32.1532 33.6989 31.2255 36.3202 30.034 38.1353C28.8577 39.9271 27.4908 40.8449 25.8612 40.9408L25.9787 42.9373C28.4291 42.7932 30.3022 41.371 31.7059 39.2328C33.0944 37.1179 34.0867 34.2192 34.817 30.8723L32.863 30.4459ZM25.9565 40.9398C23.7822 40.8602 22.1924 39.9737 21.1099 38.5937C20.0069 37.1877 19.378 35.1976 19.3146 32.8669C19.1877 28.1995 21.3436 22.4415 25.8836 18.1889L24.5163 16.7292C19.5763 21.3566 17.1722 27.6586 17.3153 32.9213C17.387 35.5555 18.1005 37.9979 19.5363 39.8281C20.9925 41.6844 23.1377 42.8379 25.8834 42.9384L25.9565 40.9398ZM25.9926 16.8494L15.1926 2.80932L13.6073 4.02875L24.4073 18.0688L25.9926 16.8494ZM13.7658 2.64587C2.80743 11.6342 -0.160037 21.9058 -0.160037 32.459L1.83996 32.459C1.83996 22.3723 4.63251 12.7239 15.0341 4.19226L13.7658 2.64587ZM-0.160037 32.459C-0.160037 40.4314 2.07597 48.3326 6.50346 54.267C10.9507 60.2279 17.5977 64.1791 26.28 64.1791L26.28 62.1791C18.2823 62.1791 12.2093 58.5703 8.10647 53.0711C3.98396 47.5455 1.83996 40.0867 1.83996 32.459L-0.160037 32.459ZM26.28 64.1791C34.6655 64.1791 41.14 60.9376 45.78 55.907C50.4 50.8983 53.1649 44.1595 54.2677 37.175L52.2922 36.8631C51.235 43.5585 48.6 49.8998 44.3099 54.5511C40.0399 59.1805 34.0944 62.1791 26.28 62.1791L26.28 64.1791ZM54.2706 37.1557C54.7425 33.7344 55.6511 30.1642 56.9925 27.5101C58.3686 24.7872 59.9874 23.4097 61.75 23.4978L61.8499 21.5003C58.8126 21.3484 56.6514 23.7509 55.2075 26.608C53.7288 29.5339 52.7774 33.3437 52.2893 36.8824L54.2706 37.1557ZM61.7343 23.4969C63.6129 23.6205 65.0153 24.6546 65.9584 26.3831C66.9202 28.1457 67.3806 30.6102 67.251 33.4027C66.9917 38.9936 64.388 45.5187 59.4833 49.5679L60.7566 51.1102C66.1719 46.6395 68.9683 39.5445 69.2489 33.4954C69.3893 30.4678 68.9048 27.6074 67.7141 25.4251C66.5046 23.2086 64.547 21.6776 61.8656 21.5012L61.7343 23.4969ZM59.3906 51.0232L72.1106 64.5832L73.5693 63.2149L60.8493 49.6549L59.3906 51.0232Z" fill="url(#paint0_linear_109_2365)"/>
<defs>
<linearGradient id="paint0_linear_109_2365" x1="-10.5" y1="522" x2="101.5" y2="522" gradientUnits="userSpaceOnUse">
<stop stop-opacity="0.29"/>
<stop offset="1" stop-opacity="0"/>
</linearGradient>
</defs>
</svg>
