<svg width="89" height="545" viewBox="0 0 89 545" fill="none" xmlns="http://www.w3.org/2000/svg">
<path d="M87 499.04L87.589 499.848L88 499.549L88 499.04L87 499.04ZM87 472.28L88 472.28L88 470.209L86.3781 471.497L87 472.28ZM57.84 495.44L56.8859 495.74L57.322 497.128L58.4619 496.223L57.84 495.44ZM30 478.76L30 477.76L29.9879 477.76L29.9759 477.76L30 478.76ZM2.04 544.28L1.04 544.28L1.04 545.28L2.04 545.28L2.04 544.28ZM87 544.28L87 545.28L88 545.28L88 544.28L87 544.28ZM87 522.56L88 522.56L88 521.56L87 521.56L87 522.56ZM60 522.56L59 522.56L59 523.56L60 523.56L60 522.56ZM60 518.72L59.411 517.912L59 518.211L59 518.72L60 518.72ZM41.52 522.56L41.52 523.56L42.52 523.56L42.52 522.56L41.52 522.56ZM22.08 522.56L21.08 522.56L21.08 523.56L22.08 523.56L22.08 522.56ZM88 499.04L88 472.28L86 472.28L86 499.04L88 499.04ZM86.3781 471.497L57.2181 494.657L58.4619 496.223L87.6219 473.063L86.3781 471.497ZM58.7941 495.14C57.1091 489.773 53.94 485.4 49.1315 482.383C44.3384 479.376 37.9886 477.76 30 477.76L30 479.76C37.7314 479.76 43.6816 481.324 48.0685 484.077C52.44 486.82 55.3309 490.787 56.8859 495.74L58.7941 495.14ZM29.9759 477.76C19.7734 478.006 12.4836 481.616 7.76832 487.526C3.07905 493.404 1.04 501.424 1.04 510.32L3.04 510.32C3.04 501.696 5.02094 494.176 9.33168 488.774C13.6164 483.404 20.3066 479.994 30.0241 479.76L29.9759 477.76ZM1.04 510.32L1.04 544.28L3.04 544.28L3.04 510.32L1.04 510.32ZM2.04 545.28L87 545.28L87 543.28L2.04 543.28L2.04 545.28ZM88 544.28L88 522.56L86 522.56L86 544.28L88 544.28ZM87 521.56L60 521.56L60 523.56L87 523.56L87 521.56ZM61 522.56L61 518.72L59 518.72L59 522.56L61 522.56ZM60.589 519.528L87.589 499.848L86.411 498.232L59.411 517.912L60.589 519.528ZM41.52 521.56L22.08 521.56L22.08 523.56L41.52 523.56L41.52 521.56ZM23.08 522.56L23.08 509.96L21.08 509.96L21.08 522.56L23.08 522.56ZM23.08 509.96C23.08 506.826 24.1949 504.556 25.7985 503.065C27.4171 501.559 29.5957 500.79 31.8 500.79C34.0043 500.79 36.1829 501.559 37.8015 503.065C39.4051 504.556 40.52 506.826 40.52 509.96L42.52 509.96C42.52 506.314 41.2049 503.499 39.1635 501.6C37.1371 499.716 34.4557 498.79 31.8 498.79C29.1443 498.79 26.4629 499.716 24.4365 501.6C22.3951 503.499 21.08 506.314 21.08 509.96L23.08 509.96ZM40.52 509.96L40.52 522.56L42.52 522.56L42.52 509.96L40.52 509.96ZM59.04 470.445C69.105 470.445 76.6839 465.861 81.7159 459.012C86.7265 452.192 89.2 443.152 89.2 434.165L87.2 434.165C87.2 442.818 84.8135 451.418 80.1041 457.828C75.4161 464.209 68.415 468.445 59.04 468.445L59.04 470.445ZM89.2 434.165C89.2 425.177 86.7264 416.167 81.7146 409.376C76.6813 402.556 69.1023 398.005 59.04 398.005L59.04 400.005C68.4177 400.005 75.4187 404.214 80.1054 410.564C84.8136 416.943 87.2 425.513 87.2 434.165L89.2 434.165ZM59.04 398.005L30 398.005L30 400.005L59.04 400.005L59.04 398.005ZM30 398.005C19.935 398.005 12.3561 402.589 7.32411 409.438C2.31347 416.258 -0.160012 425.298 -0.160012 434.285L1.83999 434.285C1.83999 425.632 4.2265 417.032 8.93587 410.622C13.6239 404.241 20.625 400.005 30 400.005L30 398.005ZM-0.160012 434.285C-0.160011 443.27 2.28232 452.281 7.27952 459.073C12.299 465.895 19.8791 470.445 30 470.445L30 468.445C20.5608 468.445 13.561 464.235 8.89046 457.887C4.19766 451.509 1.83999 442.94 1.83999 434.285L-0.160012 434.285ZM30 470.445L59.04 470.445L59.04 468.445L30 468.445L30 470.445ZM30 446.965C27.2963 446.965 25.1825 445.528 23.7012 443.224C22.2059 440.898 21.4 437.736 21.4 434.525L19.4 434.525C19.4 438.034 20.2741 441.592 22.0188 444.306C23.7775 447.042 26.4637 448.965 30 448.965L30 446.965ZM21.4 434.525C21.4 431.168 22.1269 427.849 23.5838 425.407C25.021 422.998 27.1282 421.485 30 421.485L30 419.485C26.2718 419.485 23.5789 421.512 21.8662 424.383C20.1731 427.221 19.4 430.922 19.4 434.525L21.4 434.525ZM30 421.485L59.04 421.485L59.04 419.485L30 419.485L30 421.485ZM59.04 421.485C61.6608 421.485 63.6834 422.927 65.0984 425.276C66.5271 427.648 67.28 430.878 67.28 434.165L69.28 434.165C69.28 430.612 68.4729 427.002 66.8116 424.244C65.1366 421.463 62.5392 419.485 59.04 419.485L59.04 421.485ZM67.28 434.165C67.28 437.459 66.5543 440.721 65.1386 443.122C63.7382 445.497 61.7173 446.965 59.04 446.965L59.04 448.965C62.6027 448.965 65.2018 446.953 66.8614 444.138C68.5057 441.349 69.28 437.711 69.28 434.165L67.28 434.165ZM59.04 446.965L30 446.965L30 448.965L59.04 448.965L59.04 446.965ZM2.03999 348.067L1.70349 347.125L1.03999 347.362L1.03999 348.067L2.03999 348.067ZM2.03999 367.627L1.03999 367.627L1.03999 368.337L1.71059 368.571L2.03999 367.627ZM87 397.267L86.6706 398.211L88 398.675L88 397.267L87 397.267ZM87 374.227L88 374.227L88 373.49L87.296 373.272L87 374.227ZM69.96 368.947L68.96 368.947L68.96 369.684L69.664 369.902L69.96 368.947ZM69.96 346.267L69.6518 345.316L68.96 345.54L68.96 346.267L69.96 346.267ZM87 340.747L87.3082 341.698L88 341.474L88 340.747L87 340.747ZM87 317.707L88 317.707L88 316.288L86.6635 316.765L87 317.707ZM50.88 364.147L50.6364 365.117L51.88 365.429L51.88 364.147L50.88 364.147ZM26.04 357.907L25.04 357.907L25.04 358.687L25.7964 358.877L26.04 357.907ZM26.04 357.307L25.8096 356.334L25.04 356.516L25.04 357.307L26.04 357.307ZM50.88 351.427L51.88 351.427L51.88 350.163L50.6496 350.454L50.88 351.427ZM1.03999 348.067L1.03999 367.627L3.03999 367.627L3.03999 348.067L1.03999 348.067ZM1.71059 368.571L86.6706 398.211L87.3294 396.323L2.36939 366.683L1.71059 368.571ZM88 397.267L88 374.227L86 374.227L86 397.267L88 397.267ZM87.296 373.272L70.256 367.992L69.664 369.902L86.704 375.182L87.296 373.272ZM70.96 368.947L70.96 346.267L68.96 346.267L68.96 368.947L70.96 368.947ZM70.2682 347.218L87.3082 341.698L86.6918 339.796L69.6518 345.316L70.2682 347.218ZM88 340.747L88 317.707L86 317.707L86 340.747L88 340.747ZM86.6635 316.765L1.70349 347.125L2.3765 349.009L87.3365 318.649L86.6635 316.765ZM51.1236 363.177L26.2836 356.937L25.7964 358.877L50.6364 365.117L51.1236 363.177ZM27.04 357.907L27.04 357.307L25.04 357.307L25.04 357.907L27.04 357.907ZM26.2703 358.28L51.1103 352.4L50.6496 350.454L25.8096 356.334L26.2703 358.28ZM49.88 351.427L49.88 364.147L51.88 364.147L51.88 351.427L49.88 351.427ZM2.03999 312.014L1.03999 312.014L1.03999 313.014L2.03999 313.014L2.03999 312.014ZM87 312.014L87 313.014L88 313.014L88 312.014L87 312.014ZM87 280.214L86 280.207L86 280.214L87 280.214ZM66.84 290.414L66.84 291.414L67.84 291.414L67.84 290.414L66.84 290.414ZM22.08 290.414L21.08 290.414L21.08 291.414L22.08 291.414L22.08 290.414ZM2.03999 313.014L87 313.014L87 311.014L2.03999 311.014L2.03999 313.014ZM88 312.014L88 280.214L86 280.214L86 312.014L88 312.014ZM88 280.221C88.061 271.55 85.9266 263.068 81.2019 256.727C76.4495 250.349 69.1297 246.214 59.04 246.214L59.04 248.214C68.5103 248.214 75.2305 252.06 79.5981 257.922C83.9933 263.821 86.0589 271.839 86 280.207L88 280.221ZM59.04 246.214L30.48 246.214L30.48 248.214L59.04 248.214L59.04 246.214ZM30.48 246.214C20.275 246.214 12.8667 250.345 8.03781 256.721C3.23624 263.061 1.03999 271.542 1.03999 280.214L3.03999 280.214C3.03999 271.846 5.16373 263.828 9.63216 257.928C14.0733 252.064 20.885 248.214 30.48 248.214L30.48 246.214ZM1.03999 280.214L1.03999 312.014L3.03999 312.014L3.03999 280.214L1.03999 280.214ZM66.84 289.414L22.08 289.414L22.08 291.414L66.84 291.414L66.84 289.414ZM23.08 290.414L23.08 279.494L21.08 279.494L21.08 290.414L23.08 290.414ZM23.08 279.494C23.08 276.042 23.915 273.642 25.2602 272.116C26.5886 270.608 28.5373 269.814 31.08 269.814L31.08 267.814C28.1027 267.814 25.5513 268.76 23.7598 270.793C21.985 272.807 21.08 275.747 21.08 279.494L23.08 279.494ZM31.08 269.814L57.6 269.814L57.6 267.814L31.08 267.814L31.08 269.814ZM57.6 269.814C60.1547 269.814 62.1693 270.586 63.5552 272.088C64.9511 273.6 65.84 275.994 65.84 279.494L67.84 279.494C67.84 275.675 66.8689 272.729 65.0248 270.731C63.1706 268.722 60.5653 267.814 57.6 267.814L57.6 269.814ZM65.84 279.494L65.84 290.414L67.84 290.414L67.84 279.494L65.84 279.494ZM87 235.725L87 236.725L88 236.725L88 235.725L87 235.725ZM87 214.245L88 214.245L88 213.245L87 213.245L87 214.245ZM62.52 214.245L62.52 213.245L62.4781 213.245L62.4364 213.249L62.52 214.245ZM45.36 215.685L44.3794 215.881L44.5544 216.756L45.4436 216.682L45.36 215.685ZM45.24 215.085L44.8759 214.154L44.095 214.459L44.2594 215.281L45.24 215.085ZM74.4 203.685L74.7641 204.617L75.4 204.368L75.4 203.685L74.4 203.685ZM74.4 188.925L75.4 188.925L75.4 188.237L74.7574 187.991L74.4 188.925ZM45.24 177.765L44.2536 177.601L44.1192 178.407L44.8825 178.699L45.24 177.765ZM45.36 177.045L45.4367 176.048L44.5241 175.978L44.3736 176.881L45.36 177.045ZM62.52 178.365L62.4433 179.362L62.4791 179.365L62.5151 179.365L62.52 178.365ZM87 178.485L86.9951 179.485L88 179.49L88 178.485L87 178.485ZM87 156.885L88 156.885L88 155.885L87 155.885L87 156.885ZM2.03998 156.885L2.03998 155.885L1.03998 155.885L1.03998 156.885L2.03998 156.885ZM2.03998 178.365L1.03998 178.365L1.03998 179.022L1.64223 179.283L2.03998 178.365ZM43.56 196.365L43.9555 197.284L46.0812 196.368L43.9577 195.448L43.56 196.365ZM2.03998 214.245L1.64446 213.327L1.03998 213.587L1.03998 214.245L2.03998 214.245ZM2.03999 235.725L1.03999 235.725L1.03999 236.725L2.03999 236.725L2.03999 235.725ZM88 235.725L88 214.245L86 214.245L86 235.725L88 235.725ZM87 213.245L62.52 213.245L62.52 215.245L87 215.245L87 213.245ZM62.4364 213.249L45.2764 214.689L45.4436 216.682L62.6036 215.242L62.4364 213.249ZM46.3406 215.489L46.2206 214.889L44.2594 215.281L44.3794 215.881L46.3406 215.489ZM45.6041 216.017L74.7641 204.617L74.0359 202.754L44.8759 214.154L45.6041 216.017ZM75.4 203.685L75.4 188.925L73.4 188.925L73.4 203.685L75.4 203.685ZM74.7574 187.991L45.5974 176.831L44.8825 178.699L74.0425 189.859L74.7574 187.991ZM46.2264 177.93L46.3464 177.21L44.3736 176.881L44.2536 177.601L46.2264 177.93ZM45.2833 178.042L62.4433 179.362L62.5967 177.368L45.4367 176.048L45.2833 178.042ZM62.5151 179.365L86.9951 179.485L87.0049 177.485L62.5249 177.365L62.5151 179.365ZM88 178.485L88 156.885L86 156.885L86 178.485L88 178.485ZM87 155.885L2.03998 155.885L2.03998 157.885L87 157.885L87 155.885ZM1.03998 156.885L1.03998 178.365L3.03998 178.365L3.03998 156.885L1.03998 156.885ZM1.64223 179.283L43.1622 197.283L43.9577 195.448L2.43774 177.448L1.64223 179.283ZM43.1645 195.447L1.64446 213.327L2.43551 215.164L43.9555 197.284L43.1645 195.447ZM1.03998 214.245L1.03999 235.725L3.03999 235.725L3.03998 214.245L1.03998 214.245ZM2.03999 236.725L87 236.725L87 234.725L2.03999 234.725L2.03999 236.725ZM2.03998 101.739L1.70348 100.797L1.03998 101.034L1.03998 101.739L2.03998 101.739ZM2.03998 121.299L1.03998 121.299L1.03998 122.009L1.71058 122.243L2.03998 121.299ZM87 150.939L86.6706 151.883L88 152.347L88 150.939L87 150.939ZM87 127.899L88 127.899L88 127.162L87.296 126.944L87 127.899ZM69.96 122.619L68.96 122.619L68.96 123.356L69.664 123.574L69.96 122.619ZM69.96 99.9387L69.6518 98.9874L68.96 99.2115L68.96 99.9387L69.96 99.9387ZM87 94.4187L87.3082 95.3701L88 95.146L88 94.4187L87 94.4187ZM87 71.3787L88 71.3787L88 69.9595L86.6635 70.4371L87 71.3787ZM50.88 117.819L50.6363 118.789L51.88 119.101L51.88 117.819L50.88 117.819ZM26.04 111.579L25.04 111.579L25.04 112.359L25.7963 112.549L26.04 111.579ZM26.04 110.979L25.8096 110.006L25.04 110.188L25.04 110.979L26.04 110.979ZM50.88 105.099L51.88 105.099L51.88 103.834L50.6496 104.126L50.88 105.099ZM1.03998 101.739L1.03998 121.299L3.03998 121.299L3.03998 101.739L1.03998 101.739ZM1.71058 122.243L86.6706 151.883L87.3294 149.995L2.36938 120.355L1.71058 122.243ZM88 150.939L88 127.899L86 127.899L86 150.939L88 150.939ZM87.296 126.944L70.256 121.664L69.664 123.574L86.704 128.854L87.296 126.944ZM70.96 122.619L70.96 99.9387L68.96 99.9387L68.96 122.619L70.96 122.619ZM70.2682 100.89L87.3082 95.3701L86.6918 93.4674L69.6518 98.9874L70.2682 100.89ZM88 94.4187L88 71.3787L86 71.3787L86 94.4187L88 94.4187ZM86.6635 70.4371L1.70348 100.797L2.37649 102.68L87.3365 72.3204L86.6635 70.4371ZM51.1236 116.849L26.2836 110.609L25.7963 112.549L50.6363 118.789L51.1236 116.849ZM27.04 111.579L27.04 110.979L25.04 110.979L25.04 111.579L27.04 111.579ZM26.2703 111.952L51.1103 106.072L50.6496 104.126L25.8096 110.006L26.2703 111.952ZM49.88 105.099L49.88 117.819L51.88 117.819L51.88 105.099L49.88 105.099ZM87 65.6862L87 66.6862L88 66.6862L88 65.6862L87 65.6862ZM87 44.2062L88 44.2062L88 43.2062L87 43.2062L87 44.2062ZM62.16 44.2062L61.16 44.2062L61.16 45.2062L62.16 45.2062L62.16 44.2062ZM2.03998 65.6862L1.03998 65.6862L1.03998 66.6862L2.03998 66.6862L2.03998 65.6862ZM43.08 44.2062L43.08 45.2062L44.08 45.2062L44.08 44.2062L43.08 44.2062ZM22.08 44.2062L21.08 44.2062L21.08 45.2062L22.08 45.2062L22.08 44.2062ZM22.08 31.7263L23.08 31.7263L23.0799 31.717L22.08 31.7263ZM43.08 31.7263L42.08 31.717L42.08 31.7263L43.08 31.7263ZM88 65.6862L88 44.2062L86 44.2062L86 65.6862L88 65.6862ZM87 43.2062L62.16 43.2062L62.16 45.2062L87 45.2062L87 43.2062ZM63.16 44.2062L63.16 31.6063L61.16 31.6063L61.16 44.2062L63.16 44.2062ZM63.16 31.6063C63.16 21.0842 59.3055 13.0707 53.4461 7.69439C47.6023 2.33246 39.8229 -0.353762 32.04 -0.353762L32.04 1.64624C39.3771 1.64624 46.6576 4.18005 52.0939 9.16809C57.5145 14.1417 61.16 21.6083 61.16 31.6063L63.16 31.6063ZM32.04 -0.353762C24.3181 -0.353762 16.5678 2.30188 10.7379 7.66534C4.89222 13.0433 1.03998 21.0875 1.03998 31.7263L3.03998 31.7263C3.03998 21.605 6.68774 14.1091 12.092 9.13721C17.5122 4.15063 24.7618 1.64624 32.04 1.64624L32.04 -0.353762ZM1.03998 31.7263L1.03998 65.6862L3.03998 65.6862L3.03998 31.7263L1.03998 31.7263ZM2.03998 66.6862L87 66.6862L87 64.6862L2.03998 64.6862L2.03998 66.6862ZM43.08 43.2062L22.08 43.2062L22.08 45.2062L43.08 45.2062L43.08 43.2062ZM23.08 44.2062L23.08 31.7263L21.08 31.7263L21.08 44.2062L23.08 44.2062ZM23.0799 31.717C23.0527 28.7811 24.2222 26.638 25.9622 25.209C27.727 23.7595 30.1313 23.0062 32.58 23.0062C35.0286 23.0062 37.4329 23.7595 39.1978 25.209C40.9377 26.638 42.1072 28.7811 42.08 31.717L44.0799 31.7355C44.1127 28.1915 42.6722 25.4745 40.4672 23.6634C38.287 21.873 35.4113 21.0062 32.58 21.0062C29.7486 21.0062 26.8729 21.873 24.6928 23.6635C22.4877 25.4745 21.0472 28.1915 21.08 31.7355L23.0799 31.717ZM42.08 31.7263L42.08 44.2062L44.08 44.2062L44.08 31.7263L42.08 31.7263Z" fill="url(#paint0_linear_110_2345)"/>
<defs>
<linearGradient id="paint0_linear_110_2345" x1="-10.5" y1="394.405" x2="101.5" y2="394.405" gradientUnits="userSpaceOnUse">
<stop stop-opacity="0.29"/>
<stop offset="1" stop-opacity="0"/>
</linearGradient>
</defs>
</svg>
