<svg width="26" height="24" viewBox="0 0 26 24" fill="none" xmlns="http://www.w3.org/2000/svg">
<path d="M21.317 4.36985C19.761 3.65561 18.119 3.1463 16.4319 2.85465C16.4166 2.85179 16.4007 2.85384 16.3867 2.8605C16.3726 2.86716 16.3609 2.8781 16.3534 2.89175C16.1424 3.26705 15.9087 3.75655 15.7451 4.14125C13.9004 3.86505 12.0651 3.86505 10.2583 4.14125C10.0947 3.74795 9.8525 3.26705 9.6406 2.89175C9.63276 2.87841 9.62107 2.86774 9.60706 2.86114C9.59306 2.85454 9.57739 2.85231 9.5621 2.85475C7.87488 3.14572 6.2327 3.65499 4.6769 4.36975C4.66359 4.37544 4.65238 4.38512 4.6448 4.39745C1.5334 9.04585 0.681004 13.58 1.0992 18.0579C1.10039 18.0688 1.10376 18.0794 1.10912 18.0891C1.11448 18.0987 1.12171 18.1072 1.1304 18.1139C3.1832 19.6215 5.1717 20.5368 7.1233 21.1434C7.13848 21.1479 7.15468 21.1477 7.16972 21.1427C7.18477 21.1378 7.19795 21.1284 7.2075 21.1158C7.6691 20.4854 8.0806 19.8206 8.4335 19.1216C8.43835 19.112 8.44112 19.1015 8.44163 19.0908C8.44213 19.0801 8.44036 19.0693 8.43643 19.0594C8.4325 19.0494 8.4265 19.0403 8.41883 19.0328C8.41115 19.0253 8.40198 19.0196 8.3919 19.0159C7.7391 18.7683 7.1176 18.4664 6.5197 18.1236C6.5088 18.1171 6.49964 18.1082 6.49304 18.0974C6.48643 18.0866 6.48258 18.0744 6.48183 18.0617C6.48108 18.0491 6.48345 18.0365 6.48873 18.025C6.49401 18.0135 6.50204 18.0035 6.5121 17.9959C6.6379 17.9016 6.7638 17.8035 6.8839 17.7044C6.89458 17.6956 6.9075 17.69 6.92121 17.6881C6.93492 17.6863 6.94887 17.6883 6.9615 17.6939C10.8893 19.4872 15.1415 19.4872 19.0229 17.6939C19.0355 17.6879 19.0496 17.6856 19.0635 17.6873C19.0774 17.689 19.0906 17.6946 19.1014 17.7035C19.2216 17.8025 19.3474 17.9016 19.4742 17.9959C19.4843 18.0034 19.4924 18.0134 19.4977 18.0248C19.5031 18.0362 19.5055 18.0488 19.5049 18.0614C19.5042 18.074 19.5005 18.0863 19.494 18.0971C19.4875 18.1079 19.4784 18.117 19.4676 18.1235C18.8695 18.4728 18.2429 18.771 17.5946 19.0149C17.5845 19.0187 17.5754 19.0246 17.5678 19.0323C17.5602 19.0399 17.5542 19.049 17.5504 19.0591C17.5466 19.0692 17.5449 19.0799 17.5455 19.0907C17.5461 19.1015 17.549 19.112 17.5539 19.1216C17.9143 19.8196 18.3258 20.4844 18.7789 21.1148C18.7882 21.1278 18.8013 21.1375 18.8164 21.1427C18.8315 21.1478 18.8478 21.148 18.8631 21.1434C20.8241 20.5367 22.8126 19.6214 24.8654 18.1139C24.8742 18.1075 24.8816 18.0992 24.887 18.0897C24.8924 18.0802 24.8957 18.0696 24.8967 18.0588C25.3971 12.8818 24.0585 8.38485 21.3482 4.39835C21.3416 4.3854 21.3305 4.37525 21.317 4.36975V4.36985ZM9.02 15.3313C7.8375 15.3313 6.8631 14.2456 6.8631 12.9123C6.8631 11.5791 7.8186 10.4934 9.0201 10.4934C10.2309 10.4934 11.1958 11.5886 11.1769 12.9124C11.1769 14.2456 10.2214 15.3313 9.02 15.3313V15.3313ZM16.9948 15.3313C15.8123 15.3313 14.8379 14.2456 14.8379 12.9123C14.8379 11.5791 15.7933 10.4934 16.9948 10.4934C18.2056 10.4934 19.1705 11.5886 19.1516 12.9124C19.1516 14.2456 18.2056 15.3313 16.9948 15.3313V15.3313Z" stroke="black"/>
</svg>
