<svg width="24" height="14" viewBox="0 0 24 14" fill="none" xmlns="http://www.w3.org/2000/svg">
<path d="M13.54 6.82C13.5509 10.5199 10.47 13.6237 6.77003 13.64C3.0701 13.6237 -0.0108885 10.5199 2.96483e-05 6.82C-0.0108885 3.12005 3.0701 0.0163073 6.77003 0C10.47 0.0163073 13.5509 3.12005 13.54 6.82ZM20.96 6.82C20.96 10.36 19.45 13.24 17.58 13.24C15.71 13.24 14.19 10.36 14.19 6.82C14.19 3.28 15.71 0.4 17.58 0.4C19.45 0.4 20.96 3.28 20.96 6.82ZM24 6.82C24 9.99 23.47 12.57 22.81 12.57C22.15 12.57 21.62 9.99 21.62 6.82C21.62 3.65 22.15 1.07 22.81 1.07C23.47 1.07 24 3.65 24 6.82Z" fill="black"/>
</svg>
