<svg width="26" height="16" viewBox="0 0 26 16" fill="none" xmlns="http://www.w3.org/2000/svg">
<path d="M14.54 7.82C14.5509 11.5199 11.47 14.6237 7.77003 14.64C4.0701 14.6237 0.989111 11.5199 1.00003 7.82C0.989111 4.12005 4.0701 1.01631 7.77003 1C11.47 1.01631 14.5509 4.12005 14.54 7.82ZM21.96 7.82C21.96 11.36 20.45 14.24 18.58 14.24C16.71 14.24 15.19 11.36 15.19 7.82C15.19 4.28 16.71 1.4 18.58 1.4C20.45 1.4 21.96 4.28 21.96 7.82ZM25 7.82C25 10.99 24.47 13.57 23.81 13.57C23.15 13.57 22.62 10.99 22.62 7.82C22.62 4.65 23.15 2.07 23.81 2.07C24.47 2.07 25 4.65 25 7.82Z" stroke="black"/>
</svg>
