<svg width="26" height="26" viewBox="0 0 26 26" fill="none" xmlns="http://www.w3.org/2000/svg">
<path d="M1 13C1 19.536 6.464 25 13 25C19.536 25 25 19.536 25 13C25 6.46403 19.536 1.00003 13 1.00003C6.52555 0.984926 0.99993 6.53658 1 13ZM17.906 8.22403C18.006 8.22203 18.227 8.24703 18.371 8.36403C18.4667 8.44713 18.5277 8.56311 18.542 8.68903C18.558 8.78203 18.578 8.99503 18.562 9.16103C18.382 11.059 17.6 15.663 17.202 17.788C17.034 18.688 16.703 18.989 16.382 19.018C15.686 19.083 15.157 18.558 14.482 18.116C13.426 17.423 12.829 16.992 11.804 16.316C10.619 15.536 11.387 15.106 12.062 14.406C12.239 14.222 15.309 11.429 15.369 11.176C15.376 11.144 15.383 11.026 15.313 10.964C15.243 10.902 15.139 10.923 15.064 10.94C14.958 10.964 13.271 12.08 10.003 14.285C9.523 14.615 9.09 14.775 8.701 14.765C8.273 14.757 7.449 14.524 6.836 14.325C6.084 14.08 5.487 13.951 5.539 13.536C5.566 13.32 5.864 13.099 6.432 12.873C9.93 11.349 12.262 10.344 13.43 9.85903C16.762 8.47303 17.455 8.23203 17.906 8.22403Z" stroke="black"/>
</svg>
