<svg width="26" height="22" viewBox="0 0 26 22" fill="none" xmlns="http://www.w3.org/2000/svg">
<path d="M24.953 3.32351C24.0545 3.71911 23.1026 3.98024 22.128 4.09851C23.1541 3.48176 23.9224 2.51455 24.291 1.37551C23.34 1.93051 22.286 2.33451 21.164 2.55951C20.4238 1.76793 19.4429 1.24293 18.3736 1.06601C17.3044 0.889087 16.2067 1.07016 15.2509 1.5811C14.2952 2.09204 13.5349 2.90426 13.0881 3.89163C12.6412 4.879 12.533 5.98627 12.78 7.04151C8.69 6.84851 5.067 4.8835 2.64 1.91551C2.19879 2.66532 1.96866 3.52053 1.974 4.39051C1.974 6.10051 2.844 7.60351 4.162 8.48651C3.38086 8.46164 2.61697 8.25044 1.934 7.8705V7.93051C1.93356 9.0669 2.32627 10.1684 3.04551 11.0483C3.76474 11.9281 4.76621 12.532 5.88 12.7575C5.1583 12.9509 4.40241 12.9799 3.668 12.8425C3.98412 13.8205 4.59766 14.6754 5.42301 15.288C6.24837 15.9006 7.24435 16.2402 8.272 16.2595C6.53153 17.6255 4.38248 18.3668 2.17 18.3645C1.78 18.3645 1.391 18.3415 1 18.2975C3.25571 19.7418 5.87851 20.5085 8.557 20.5065C17.61 20.5065 22.555 13.0105 22.555 6.52151C22.555 6.31151 22.555 6.10151 22.54 5.89151C23.506 5.19637 24.2922 4.31332 24.953 3.32351Z" stroke="black" stroke-miterlimit="10.4761" stroke-linejoin="round"/>
</svg>
