<svg width="95" height="24" viewBox="0 0 95 24" fill="none" xmlns="http://www.w3.org/2000/svg">
<path d="M9.76823 24C8.43571 24 7.15692 23.9016 5.93187 23.7049C4.70681 23.5082 3.58921 23.235 2.57907 22.8852C1.59043 22.5137 0.730737 22.1093 0 21.6721L2.93369 15.9672C3.77189 16.4481 4.61009 16.8525 5.44829 17.1803C6.30798 17.4863 7.15692 17.7158 7.99512 17.8689C8.85481 18.0219 9.70376 18.0984 10.542 18.0984C11.2082 18.0984 11.7563 18.0437 12.1861 17.9344C12.6375 17.8251 12.9706 17.6721 13.1855 17.4754C13.4219 17.2568 13.5401 17.0164 13.5401 16.7541C13.5401 16.4044 13.3467 16.1202 12.9598 15.9016C12.573 15.6831 12.0572 15.4863 11.4124 15.3115C10.7891 15.1366 10.0906 14.9617 9.3169 14.7869C8.56467 14.5902 7.80169 14.3497 7.02797 14.0656C6.25425 13.7596 5.545 13.377 4.90024 12.918C4.27696 12.459 3.77189 11.8798 3.38503 11.1803C2.99817 10.4809 2.80474 9.62842 2.80474 8.62295C2.80474 6.87432 3.25608 5.35519 4.15875 4.06557C5.08292 2.77596 6.39395 1.78142 8.09184 1.08197C9.81122 0.360656 11.853 0 14.2171 0C15.8935 0 17.4517 0.174863 18.8917 0.524589C20.3532 0.852458 21.6105 1.33333 22.6636 1.96721L19.9233 7.60656C19.0207 7.03825 18.032 6.61202 16.9574 6.32787C15.9043 6.04372 14.8297 5.90164 13.7336 5.90164C13.0028 5.90164 12.3903 5.97814 11.896 6.13115C11.4016 6.2623 11.0255 6.44809 10.7676 6.68852C10.5312 6.92896 10.413 7.18033 10.413 7.44262C10.413 7.79235 10.6064 8.08743 10.9933 8.32787C11.3802 8.54645 11.896 8.74317 12.5407 8.91803C13.1855 9.07104 13.884 9.2459 14.6362 9.44262C15.41 9.61749 16.1729 9.84699 16.9252 10.1311C17.6989 10.3934 18.4081 10.7541 19.0529 11.2131C19.6977 11.6503 20.2135 12.2186 20.6003 12.918C20.9872 13.5956 21.1806 14.4372 21.1806 15.4426C21.1806 17.1475 20.7185 18.6448 19.7944 19.9344C18.8702 21.2022 17.5484 22.1967 15.8291 22.918C14.1312 23.6393 12.1109 24 9.76823 24Z" fill="black"/>
<path d="M31.7944 9.04918H41.8527L40.7566 14.623H30.6983L31.7944 9.04918ZM30.6015 17.6393H41.9172L40.7566 23.4754H21.9939L26.5073 0.524589H44.8509L43.6903 6.36066H32.826L30.6015 17.6393Z" fill="black"/>
<path d="M50.4632 23.4754L45.434 0.524589H53.2357L57.2977 19.9672H52.333L64.1967 0.524589H71.9984L57.9425 23.4754H50.4632Z" fill="black"/>
<path d="M68.2421 23.4754L72.7555 0.524589H79.0098L87.4885 14.4918H84.8449L87.5852 0.524589H95L90.4866 23.4754H84.2324L75.7537 9.5082H78.3972L75.657 23.4754H68.2421Z" fill="black"/>
</svg>
