<svg width="59" height="59" viewBox="0 0 59 59" fill="none" xmlns="http://www.w3.org/2000/svg">
<rect width="59" height="59" rx="10" fill="url(#paint0_linear_393_228)"/>
<path d="M15.4865 41.624C17.4065 45.848 22.0145 47.432 26.3345 47.48C32.6705 47.528 38.9105 43.784 39.8225 37.112C40.2065 34.472 39.6305 30.632 36.4625 28.856C40.2065 26.696 41.3105 22.04 40.2545 18.68V18.728C38.8145 14.36 35.0705 12.536 30.9425 12.536C26.8625 12.536 22.7345 14.552 19.4225 18.008L23.7905 22.424C25.1825 21.032 27.1985 20.264 28.8785 20.264C30.1265 20.264 31.1825 20.792 31.7105 21.8C32.4785 23.24 31.3265 26.024 29.1185 26.024H24.0305L23.0225 33.176H28.0145C30.4625 33.176 31.7585 34.712 31.5185 36.44C31.2785 38.264 29.0705 39.368 26.7665 39.368C24.7985 39.368 22.7345 38.456 21.7745 36.488L15.4865 41.624Z" fill="white"/>
<defs>
<linearGradient id="paint0_linear_393_228" x1="29.5" y1="59" x2="29.5" y2="-1.58954e-06" gradientUnits="userSpaceOnUse">
<stop stop-color="#35CB00"/>
<stop offset="1" stop-color="#75FF21"/>
</linearGradient>
</defs>
</svg>
