<svg width="89" height="579" viewBox="0 0 89 579" fill="none" xmlns="http://www.w3.org/2000/svg">
<path d="M42.96 501.72L42.7155 502.69L42.7702 502.703L42.8261 502.711L42.96 501.72ZM60.72 504.12L61.72 504.12L61.72 503.246L60.8539 503.129L60.72 504.12ZM60.72 504.48L60.8736 505.468L61.72 505.337L61.72 504.48L60.72 504.48ZM42.96 507.24L42.8064 506.252L42.7416 506.262L42.6787 506.28L42.96 507.24ZM13.08 516L12.7987 515.04L12.08 515.251L12.08 516L13.08 516ZM13.08 532.32L12.08 532.32L12.08 533.051L12.7765 533.273L13.08 532.32ZM42.84 541.8L42.5365 542.753L42.6296 542.782L42.7266 542.794L42.84 541.8ZM60.72 543.84L61.72 543.84L61.72 542.948L60.8334 542.846L60.72 543.84ZM60.72 544.44L60.8391 545.433L61.72 545.327L61.72 544.44L60.72 544.44ZM42.72 546.6L42.6009 545.607L42.5395 545.614L42.4795 545.629L42.72 546.6ZM2.04 556.68L1.79949 555.709L1.04 555.898L1.04 556.68L2.04 556.68ZM2.04 579L1.04 579L1.04 580.331L2.31812 579.961L2.04 579ZM87 554.4L87.2781 555.361L88 555.152L88 554.4L87 554.4ZM87 534.48L88 534.48L88 533.725L87.2734 533.518L87 534.48ZM63.36 527.76L63.6334 526.798L63.5801 526.783L63.5254 526.774L63.36 527.76ZM44.04 524.52L43.04 524.52L43.04 525.366L43.8746 525.506L44.04 524.52ZM44.04 524.16L43.8875 523.172L43.04 523.302L43.04 524.16L44.04 524.16ZM63.48 521.16L63.6325 522.148L63.7107 522.136L63.786 522.112L63.48 521.16ZM87 513.6L87.306 514.552L88 514.329L88 513.6L87 513.6ZM87 493.68L88 493.68L88 492.927L87.2769 492.719L87 493.68ZM2.03999 469.2L2.31687 468.239L1.03999 467.871L1.03999 469.2L2.03999 469.2ZM2.04 491.4L1.04 491.4L1.04 492.179L1.79545 492.37L2.04 491.4ZM42.8261 502.711L60.5861 505.111L60.8539 503.129L43.0939 500.729L42.8261 502.711ZM59.72 504.12L59.72 504.48L61.72 504.48L61.72 504.12L59.72 504.12ZM60.5664 503.492L42.8064 506.252L43.1136 508.228L60.8736 505.468L60.5664 503.492ZM42.6787 506.28L12.7987 515.04L13.3613 516.96L43.2413 508.2L42.6787 506.28ZM12.08 516L12.08 532.32L14.08 532.32L14.08 516L12.08 516ZM12.7765 533.273L42.5365 542.753L43.1435 540.847L13.3835 531.367L12.7765 533.273ZM42.7266 542.794L60.6066 544.834L60.8334 542.846L42.9534 540.806L42.7266 542.794ZM59.72 543.84L59.72 544.44L61.72 544.44L61.72 543.84L59.72 543.84ZM60.6009 543.447L42.6009 545.607L42.8391 547.593L60.8391 545.433L60.6009 543.447ZM42.4795 545.629L1.79949 555.709L2.28051 557.651L42.9605 547.571L42.4795 545.629ZM1.04 556.68L1.04 579L3.04 579L3.04 556.68L1.04 556.68ZM2.31812 579.961L87.2781 555.361L86.7219 553.439L1.76188 578.039L2.31812 579.961ZM88 554.4L88 534.48L86 534.48L86 554.4L88 554.4ZM87.2734 533.518L63.6334 526.798L63.0866 528.722L86.7266 535.442L87.2734 533.518ZM63.5254 526.774L44.2054 523.534L43.8746 525.506L63.1946 528.746L63.5254 526.774ZM45.04 524.52L45.04 524.16L43.04 524.16L43.04 524.52L45.04 524.52ZM44.1925 525.148L63.6325 522.148L63.3275 520.172L43.8875 523.172L44.1925 525.148ZM63.786 522.112L87.306 514.552L86.694 512.648L63.174 520.208L63.786 522.112ZM88 513.6L88 493.68L86 493.68L86 513.6L88 513.6ZM87.2769 492.719L2.31687 468.239L1.76312 470.161L86.7231 494.641L87.2769 492.719ZM1.03999 469.2L1.04 491.4L3.04 491.4L3.03999 469.2L1.03999 469.2ZM1.79545 492.37L42.7155 502.69L43.2045 500.75L2.28454 490.43L1.79545 492.37ZM54.96 440.875L53.96 440.875L53.96 441.875L54.96 441.875L54.96 440.875ZM54.96 416.395L54.96 415.395L53.96 415.395L53.96 416.395L54.96 416.395ZM87 416.395L87 417.395L88 417.395L88 416.395L87 416.395ZM87 394.795L88 394.795L88 393.795L87 393.795L87 394.795ZM2.03999 394.795L2.03999 393.795L1.03999 393.795L1.03999 394.795L2.03999 394.795ZM2.03999 416.395L1.03999 416.395L1.03999 417.395L2.03999 417.395L2.03999 416.395ZM34.2 416.395L35.2 416.395L35.2 415.395L34.2 415.395L34.2 416.395ZM34.2 440.875L34.2 441.875L35.2 441.875L35.2 440.875L34.2 440.875ZM2.03999 440.875L2.03999 439.875L1.03999 439.875L1.03999 440.875L2.03999 440.875ZM2.03999 462.475L1.03999 462.475L1.03999 463.475L2.03999 463.475L2.03999 462.475ZM87 462.475L87 463.475L88 463.475L88 462.475L87 462.475ZM87 440.875L88 440.875L88 439.875L87 439.875L87 440.875ZM55.96 440.875L55.96 416.395L53.96 416.395L53.96 440.875L55.96 440.875ZM54.96 417.395L87 417.395L87 415.395L54.96 415.395L54.96 417.395ZM88 416.395L88 394.795L86 394.795L86 416.395L88 416.395ZM87 393.795L2.03999 393.795L2.03999 395.795L87 395.795L87 393.795ZM1.03999 394.795L1.03999 416.395L3.03999 416.395L3.03999 394.795L1.03999 394.795ZM2.03999 417.395L34.2 417.395L34.2 415.395L2.03999 415.395L2.03999 417.395ZM33.2 416.395L33.2 440.875L35.2 440.875L35.2 416.395L33.2 416.395ZM34.2 439.875L2.03999 439.875L2.03999 441.875L34.2 441.875L34.2 439.875ZM1.03999 440.875L1.03999 462.475L3.03999 462.475L3.03999 440.875L1.03999 440.875ZM2.03999 463.475L87 463.475L87 461.475L2.03999 461.475L2.03999 463.475ZM88 462.475L88 440.875L86 440.875L86 462.475L88 462.475ZM87 439.875L54.96 439.875L54.96 441.875L87 441.875L87 439.875ZM87 338.062L88 338.062L88 337.062L87 337.062L87 338.062ZM53.52 338.062L53.0195 338.927L53.2517 339.062L53.52 339.062L53.52 338.062ZM2.03999 308.302L2.54047 307.436L1.03999 306.568L1.03999 308.302L2.03999 308.302ZM2.03999 333.502L1.03999 333.502L1.03999 334.124L1.59831 334.399L2.03999 333.502ZM33.24 348.862L33.6817 349.759L35.504 348.862L33.6817 347.964L33.24 348.862ZM2.03999 364.222L1.59831 363.324L1.03999 363.599L1.03999 364.222L2.03999 364.222ZM2.03999 389.182L1.03999 389.182L1.03999 390.911L2.53896 390.048L2.03999 389.182ZM53.52 359.542L53.52 358.542L53.2527 358.542L53.021 358.675L53.52 359.542ZM87 359.542L87 360.542L88 360.542L88 359.542L87 359.542ZM87 337.062L53.52 337.062L53.52 339.062L87 339.062L87 337.062ZM54.0205 337.196L2.54047 307.436L1.53951 309.167L53.0195 338.927L54.0205 337.196ZM1.03999 308.302L1.03999 333.502L3.03999 333.502L3.03999 308.302L1.03999 308.302ZM1.59831 334.399L32.7983 349.759L33.6817 347.964L2.48167 332.604L1.59831 334.399ZM32.7983 347.964L1.59831 363.324L2.48167 365.119L33.6817 349.759L32.7983 347.964ZM1.03999 364.222L1.03999 389.182L3.03999 389.182L3.03999 364.222L1.03999 364.222ZM2.53896 390.048L54.0189 360.408L53.021 358.675L1.54103 388.315L2.53896 390.048ZM53.52 360.542L87 360.542L87 358.542L53.52 358.542L53.52 360.542ZM88 359.542L88 338.062L86 338.062L86 359.542L88 359.542ZM72.84 289.133L72.1107 289.818L72.7338 290.482L73.4533 289.923L72.84 289.133ZM62.76 226.613L62.7141 227.612L62.7162 227.612L62.76 226.613ZM33.84 255.893L34.817 256.107L34.8207 256.09L34.8237 256.073L33.84 255.893ZM25.92 267.173L25.8834 268.173L25.9311 268.174L25.9787 268.172L25.92 267.173ZM25.2 242.693L25.8836 243.423L26.5458 242.803L25.9926 242.084L25.2 242.693ZM14.4 228.653L15.1926 228.044L14.5635 227.226L13.7658 227.88L14.4 228.653ZM53.28 262.253L54.2677 262.409L54.2693 262.4L54.2706 262.39L53.28 262.253ZM61.8 247.733L61.8656 246.736L61.8578 246.735L61.8499 246.735L61.8 247.733ZM60.12 275.573L59.4833 274.802L58.6618 275.481L59.3906 276.258L60.12 275.573ZM73.4533 289.923C83.8714 281.834 89.2 270.754 89.2 260.213L87.2 260.213C87.2 270.073 82.2086 280.593 72.2267 288.344L73.4533 289.923ZM89.2 260.213C89.2 252.238 86.9033 243.818 82.4731 237.273C78.0321 230.712 71.4069 225.991 62.8037 225.614L62.7162 227.612C70.5531 227.956 76.6479 232.235 80.8169 238.394C84.9967 244.569 87.2 252.588 87.2 260.213L89.2 260.213ZM62.8059 225.614C52.0738 225.121 45.2068 228.779 40.7128 234.613C36.2802 240.368 34.2392 248.138 32.8562 255.714L34.8237 256.073C36.2008 248.529 38.1798 241.179 42.2972 235.834C46.3531 230.568 52.5662 227.146 62.7141 227.612L62.8059 225.614ZM32.863 255.68C32.1532 258.933 31.2256 261.555 30.034 263.37C28.8577 265.161 27.4908 266.079 25.8613 266.175L25.9787 268.172C28.4292 268.028 30.3023 266.605 31.7059 264.467C33.0944 262.352 34.0867 259.454 34.817 256.107L32.863 255.68ZM25.9565 266.174C23.7822 266.095 22.1925 265.208 21.1099 263.828C20.007 262.422 19.378 260.432 19.3146 258.101C19.1877 253.434 21.3436 247.676 25.8836 243.423L24.5163 241.964C19.5763 246.591 17.1723 252.893 17.3154 258.156C17.387 260.79 18.1005 263.232 19.5363 265.063C20.9925 266.919 23.1378 268.072 25.8834 268.173L25.9565 266.174ZM25.9926 242.084L15.1926 228.044L13.6074 229.263L24.4074 243.303L25.9926 242.084ZM13.7658 227.88C2.80745 236.869 -0.160021 247.14 -0.160021 257.693L1.83998 257.693C1.83998 247.607 4.63252 237.958 15.0342 229.427L13.7658 227.88ZM-0.160021 257.693C-0.16002 265.666 2.07599 273.567 6.50347 279.501C10.9507 285.462 17.5977 289.413 26.28 289.413L26.28 287.413C18.2823 287.413 12.2093 283.805 8.10649 278.305C3.98397 272.78 1.83998 265.321 1.83998 257.693L-0.160021 257.693ZM26.28 289.413C34.6655 289.413 41.14 286.172 45.7801 281.141C50.4 276.133 53.1649 269.394 54.2677 262.409L52.2922 262.097C51.235 268.793 48.6 275.134 44.3099 279.785C40.0399 284.415 34.0945 287.413 26.28 287.413L26.28 289.413ZM54.2706 262.39C54.7425 258.969 55.6512 255.399 56.9925 252.744C58.3686 250.022 59.9874 248.644 61.75 248.732L61.8499 246.735C58.8126 246.583 56.6514 248.985 55.2075 251.842C53.7288 254.768 52.7775 258.578 52.2894 262.117L54.2706 262.39ZM61.7343 248.731C63.6129 248.855 65.0153 249.889 65.9584 251.617C66.9202 253.38 67.3806 255.845 67.2511 258.637C66.9917 264.228 64.388 270.753 59.4833 274.802L60.7566 276.345C66.1719 271.874 68.9683 264.779 69.2489 258.73C69.3894 255.702 68.9048 252.842 67.7141 250.659C66.5046 248.443 64.547 246.912 61.8656 246.736L61.7343 248.731ZM59.3906 276.258L72.1107 289.818L73.5693 288.449L60.8493 274.889L59.3906 276.258ZM22.2 195.599L21.2 195.599L21.2 196.599L22.2 196.599L22.2 195.599ZM22.2 158.159L23.2 158.159L23.2 157.159L22.2 157.159L22.2 158.159ZM2.03998 158.159L2.03998 157.159L1.03998 157.159L1.03998 158.159L2.03998 158.159ZM2.03998 217.319L1.03998 217.319L1.03998 218.319L2.03998 218.319L2.03998 217.319ZM87 217.319L87 218.319L88 218.319L88 217.319L87 217.319ZM87 158.159L88 158.159L88 157.159L87 157.159L87 158.159ZM66.72 158.159L66.72 157.159L65.72 157.159L65.72 158.159L66.72 158.159ZM66.72 195.599L66.72 196.599L67.72 196.599L67.72 195.599L66.72 195.599ZM54 195.599L53 195.599L53 196.599L54 196.599L54 195.599ZM54 161.159L55 161.159L55 160.159L54 160.159L54 161.159ZM35.4 161.159L35.4 160.159L34.4 160.159L34.4 161.159L35.4 161.159ZM35.4 195.599L35.4 196.599L36.4 196.599L36.4 195.599L35.4 195.599ZM23.2 195.599L23.2 158.159L21.2 158.159L21.2 195.599L23.2 195.599ZM22.2 157.159L2.03998 157.159L2.03998 159.159L22.2 159.159L22.2 157.159ZM1.03998 158.159L1.03998 217.319L3.03998 217.319L3.03998 158.159L1.03998 158.159ZM2.03998 218.319L87 218.319L87 216.319L2.03998 216.319L2.03998 218.319ZM88 217.319L88 158.159L86 158.159L86 217.319L88 217.319ZM87 157.159L66.72 157.159L66.72 159.159L87 159.159L87 157.159ZM65.72 158.159L65.72 195.599L67.72 195.599L67.72 158.159L65.72 158.159ZM66.72 194.599L54 194.599L54 196.599L66.72 196.599L66.72 194.599ZM55 195.599L55 161.159L53 161.159L53 195.599L55 195.599ZM54 160.159L35.4 160.159L35.4 162.159L54 162.159L54 160.159ZM34.4 161.159L34.4 195.599L36.4 195.599L36.4 161.159L34.4 161.159ZM35.4 194.599L22.2 194.599L22.2 196.599L35.4 196.599L35.4 194.599ZM43.56 110.172L43.2528 111.124L43.3114 111.143L43.3718 111.154L43.56 110.172ZM63.6 114.012L64.6 114.012L64.6 113.186L63.7882 113.03L63.6 114.012ZM63.6 114.372L63.7871 115.355L64.6 115.2L64.6 114.372L63.6 114.372ZM43.44 118.212L43.2529 117.23L43.1928 117.241L43.1345 117.26L43.44 118.212ZM1.91997 131.532L1.6145 130.58L0.919975 130.803L0.919975 131.532L1.91997 131.532ZM1.91998 154.572L0.919976 154.572L0.919976 155.995L2.25884 155.513L1.91998 154.572ZM86.88 123.972L87.2188 124.913L87.88 124.675L87.88 123.972L86.88 123.972ZM86.88 104.292L87.88 104.292L87.88 103.589L87.2188 103.351L86.88 104.292ZM1.91997 73.6922L2.25883 72.7513L0.919972 72.2691L0.919972 73.6922L1.91997 73.6922ZM1.91997 96.7322L0.919973 96.7322L0.919973 97.4602L1.61281 97.6838L1.91997 96.7322ZM43.3718 111.154L63.4118 114.994L63.7882 113.03L43.7482 109.19L43.3718 111.154ZM62.6 114.012L62.6 114.372L64.6 114.372L64.6 114.012L62.6 114.012ZM63.4129 113.39L43.2529 117.23L43.6271 119.195L63.7871 115.355L63.4129 113.39ZM43.1345 117.26L1.6145 130.58L2.22545 132.484L43.7455 119.164L43.1345 117.26ZM0.919975 131.532L0.919976 154.572L2.91998 154.572L2.91997 131.532L0.919975 131.532ZM2.25884 155.513L87.2188 124.913L86.5411 123.031L1.58111 153.631L2.25884 155.513ZM87.88 123.972L87.88 104.292L85.88 104.292L85.88 123.972L87.88 123.972ZM87.2188 103.351L2.25883 72.7513L1.58111 74.633L86.5411 105.233L87.2188 103.351ZM0.919972 73.6922L0.919973 96.7322L2.91997 96.7322L2.91997 73.6922L0.919972 73.6922ZM1.61281 97.6838L43.2528 111.124L43.8671 109.221L2.22714 95.7805L1.61281 97.6838ZM87 68.0222L87 69.0222L88 69.0222L88 68.0222L87 68.0222ZM87 46.5422L88 46.5422L88 45.5422L87 45.5422L87 46.5422ZM53.04 46.5422L53.04 45.5422L52.9566 45.5422L52.8744 45.556L53.04 46.5422ZM36.6 49.3022L35.6194 49.4983L35.8095 50.4489L36.7655 50.2884L36.6 49.3022ZM36.48 48.7022L36.0798 47.7857L35.3414 48.1082L35.4994 48.8983L36.48 48.7022ZM53.52 41.2622L53.9201 42.1786L53.9701 42.1568L54.0175 42.1296L53.52 41.2622ZM87 22.0622L87.4975 22.9297L88 22.6415L88 22.0622L87 22.0622ZM87 0.342159L88 0.342159L88 -0.657841L87 -0.657841L87 0.342159ZM2.03997 0.342162L2.03997 -0.657838L1.03997 -0.657838L1.03997 0.342162L2.03997 0.342162ZM2.03997 21.7022L1.03997 21.7022L1.03997 22.7022L2.03997 22.7022L2.03997 21.7022ZM40.56 21.7022L40.56 22.7022L41.56 22.7022L41.56 21.7022L40.56 21.7022ZM55.2 19.3022L56.1806 19.1061L54.2 19.3022L55.2 19.3022ZM55.32 19.9022L55.7092 20.8233L56.4605 20.5059L56.3006 19.7061L55.32 19.9022ZM38.28 27.1022L37.8908 26.181L37.8375 26.2035L37.7873 26.232L38.28 27.1022ZM2.03998 47.6222L1.54725 46.752L1.03998 47.0392L1.03998 47.6222L2.03998 47.6222ZM2.03998 68.0222L1.03998 68.0222L1.03998 69.0222L2.03998 69.0222L2.03998 68.0222ZM88 68.0222L88 46.5422L86 46.5422L86 68.0222L88 68.0222ZM87 45.5422L53.04 45.5422L53.04 47.5422L87 47.5422L87 45.5422ZM52.8744 45.556L36.4344 48.316L36.7655 50.2884L53.2055 47.5284L52.8744 45.556ZM37.5806 49.1061L37.4606 48.506L35.4994 48.8983L35.6194 49.4983L37.5806 49.1061ZM36.8801 49.6187L53.9201 42.1786L53.1198 40.3457L36.0798 47.7857L36.8801 49.6187ZM54.0175 42.1296L87.4975 22.9297L86.5025 21.1947L53.0225 40.3947L54.0175 42.1296ZM88 22.0622L88 0.342159L86 0.342159L86 22.0622L88 22.0622ZM87 -0.657841L2.03997 -0.657838L2.03997 1.34216L87 1.34216L87 -0.657841ZM1.03997 0.342162L1.03997 21.7022L3.03997 21.7022L3.03997 0.342162L1.03997 0.342162ZM2.03997 22.7022L40.56 22.7022L40.56 20.7022L2.03997 20.7022L2.03997 22.7022ZM41.56 21.7022C41.56 22.0272 41.4068 22.2479 41.3269 22.3432C41.2428 22.4435 41.1581 22.5038 41.1181 22.5305C41.0357 22.5856 40.9648 22.6143 40.9466 22.6217C40.9182 22.6332 40.8964 22.6403 40.8871 22.6433C40.8763 22.6467 40.8691 22.6487 40.8669 22.6494C40.8638 22.6502 40.8804 22.6458 40.9292 22.6356C41.0206 22.6165 41.1653 22.5892 41.3632 22.5543C41.7556 22.4849 42.3212 22.3912 43.0066 22.2807C44.3759 22.0599 46.2029 21.7754 48.0339 21.4903C49.8629 21.2054 51.6959 20.92 53.0716 20.6982C53.7587 20.5874 54.3368 20.4918 54.745 20.4196C54.9474 20.3838 55.1173 20.3522 55.2404 20.3264C55.2988 20.3141 55.3644 20.2996 55.4229 20.2836C55.4468 20.277 55.5027 20.2613 55.5654 20.2359C55.5906 20.2256 55.6668 20.1943 55.7528 20.1369C55.7946 20.1089 55.8805 20.0476 55.9656 19.9462C56.0463 19.8499 56.2 19.6281 56.2 19.3022L54.2 19.3022C54.2 18.9772 54.3532 18.7564 54.433 18.6612C54.5172 18.5608 54.6018 18.5006 54.6418 18.4739C54.7242 18.4188 54.7951 18.3901 54.8133 18.3827C54.8418 18.3712 54.8636 18.364 54.8728 18.3611C54.8836 18.3577 54.8909 18.3556 54.8931 18.355C54.8961 18.3542 54.8795 18.3586 54.8307 18.3688C54.7394 18.3879 54.5947 18.4151 54.3968 18.4501C54.0044 18.5195 53.4387 18.6132 52.7533 18.7237C51.3841 18.9444 49.5571 19.2289 47.7261 19.5141C45.8971 19.7989 44.0641 20.0844 42.6883 20.3061C42.0012 20.4169 41.4231 20.5126 41.0149 20.5848C40.8125 20.6206 40.6427 20.6522 40.5195 20.678C40.4611 20.6902 40.3955 20.7048 40.3371 20.7208C40.3131 20.7274 40.2572 20.743 40.1946 20.7685C40.1693 20.7787 40.0931 20.8101 40.0071 20.8675C39.9654 20.8954 39.8794 20.9567 39.7944 21.0582C39.7136 21.1545 39.56 21.3763 39.56 21.7022L41.56 21.7022ZM54.2194 19.4983L54.3394 20.0983L56.3006 19.7061L56.1806 19.1061L54.2194 19.4983ZM54.9308 18.981L37.8908 26.181L38.6692 28.0233L55.7092 20.8233L54.9308 18.981ZM37.7873 26.232L1.54725 46.752L2.5327 48.4924L38.7727 27.9723L37.7873 26.232ZM1.03998 47.6222L1.03998 68.0222L3.03998 68.0222L3.03998 47.6222L1.03998 47.6222ZM2.03998 69.0222L87 69.0222L87 67.0222L2.03998 67.0222L2.03998 69.0222Z" fill="url(#paint0_linear_109_2487)"/>
<defs>
<linearGradient id="paint0_linear_109_2487" x1="-10.5" y1="413.06" x2="101.5" y2="413.06" gradientUnits="userSpaceOnUse">
<stop stop-opacity="0.29"/>
<stop offset="1" stop-opacity="0"/>
</linearGradient>
</defs>
</svg>
